<svg width="32" height="32" viewBox="0 0 32 32" fill="none" xmlns="http://www.w3.org/2000/svg">
<path d="M25.8663 17.3334C25.5996 17.3334 25.333 17.2 24.933 17.2C24.3996 17.0667 23.733 16.9334 23.1996 16.6667C21.8663 16.2667 20.533 16.8 19.8663 18L19.5996 18.6667C16.933 17.2 14.7996 15.0667 13.333 12.4L13.9996 12C15.1996 11.4667 15.8663 10 15.333 8.66669C15.0663 8.13335 14.933 7.46669 14.7996 6.93335C14.7996 6.66669 14.6663 6.40002 14.6663 6.00002C14.3996 4.13335 12.6663 2.66669 10.6663 2.66669H6.66631C5.46631 2.66669 4.39965 3.20002 3.73298 4.00002C2.93298 4.93335 2.66631 6.13335 2.79965 7.33335C3.46631 12.9334 5.99965 18 9.99965 22C13.9996 26 19.1996 28.5334 24.6663 29.2C25.8663 29.3334 26.933 28.9334 27.8663 28.2667C28.6663 27.4667 29.1996 26.4 29.1996 25.3334V21.3334C29.1996 19.2 27.8663 17.6 25.8663 17.3334Z" fill="white"/>
</svg>
